<svg id="visual" viewBox="0 0 960 540" width="960" height="540" xmlns="http://www.w3.org/2000/svg" xmlns:xlink="http://www.w3.org/1999/xlink" version="1.1"><rect width="960" height="540" fill="#ffffff"></rect><g><g transform="translate(828 156)"><path d="M150.9 -123.3C177.7 -86.7 169.4 -25 154.4 33.1C139.5 91.2 117.9 145.5 75.1 172.6C32.2 199.7 -31.8 199.4 -74.7 172.2C-117.6 145 -139.3 90.9 -155 32.4C-170.7 -26 -180.4 -88.8 -153.6 -125.5C-126.8 -162.2 -63.4 -172.7 -0.7 -172.2C62 -171.6 124.1 -160 150.9 -123.3Z" fill="#0d9ee6"></path></g><g transform="translate(420 487)"><path d="M134.3 -106C160.4 -74.3 158.6 -19.3 143.3 26.6C127.9 72.4 99 109 56.9 136.2C14.8 163.4 -40.5 181.2 -83.8 164.1C-127 147 -158.2 95.1 -164.4 44.3C-170.5 -6.4 -151.6 -56.1 -120.1 -89.1C-88.5 -122 -44.2 -138.3 4.9 -142.2C54.1 -146.1 108.2 -137.7 134.3 -106Z" fill="#0d9ee6"></path></g></g></svg>